<svg width="90" height="90" viewBox="0 0 90 90" fill="none" xmlns="http://www.w3.org/2000/svg">
<path d="M45 0C20.1471 0 0 20.1471 0 45C0 69.8529 20.1471 90 45 90C69.8529 90 90 69.8529 90 45C90 20.1471 69.8529 0 45 0ZM25.5314 37.5392C23.9967 37.5396 22.4965 37.0849 21.2203 36.2326C19.9441 35.3803 18.9493 34.1686 18.3618 32.7509C17.7742 31.3332 17.6203 29.7731 17.9194 28.2679C18.2186 26.7627 18.9574 25.3801 20.0424 24.2948C21.1274 23.2095 22.5099 22.4703 24.015 22.1708C25.5201 21.8713 27.0803 22.0248 28.4981 22.612C29.916 23.1992 31.1279 24.1936 31.9805 25.4696C32.8331 26.7456 33.2882 28.2458 33.2882 29.7804C33.2877 31.8377 32.4704 33.8106 31.0158 35.2654C29.5613 36.7203 27.5886 37.5382 25.5314 37.5392ZM45 76.4706C43.4658 76.4706 41.9661 76.0157 40.6905 75.1633C39.4149 74.311 38.4207 73.0995 37.8336 71.6821C37.2465 70.2648 37.0929 68.7051 37.3922 67.2004C37.6915 65.6958 38.4303 64.3136 39.5151 63.2288C40.5999 62.144 41.982 61.4052 43.4867 61.1059C44.9914 60.8066 46.551 60.9602 47.9684 61.5473C49.3858 62.1344 50.5973 63.1286 51.4496 64.4042C52.3019 65.6799 52.7569 67.1796 52.7569 68.7137C52.7569 70.771 51.9396 72.744 50.4849 74.1987C49.0302 75.6534 47.0572 76.4706 45 76.4706ZM45 57.002C43.4658 57.002 41.9661 56.547 40.6905 55.6947C39.4149 54.8424 38.4207 53.6309 37.8336 52.2135C37.2465 50.7961 37.0929 49.2365 37.3922 47.7318C37.6915 46.2271 38.4303 44.845 39.5151 43.7602C40.5999 42.6754 41.982 41.9366 43.4867 41.6373C44.9914 41.338 46.551 41.4916 47.9684 42.0787C49.3858 42.6658 50.5973 43.66 51.4496 44.9356C52.3019 46.2112 52.7569 47.7109 52.7569 49.2451C52.7576 50.2642 52.5576 51.2735 52.1681 52.2153C51.7786 53.1571 51.2074 54.0129 50.487 54.7338C49.7666 55.4547 48.9113 56.0266 47.9698 56.4168C47.0283 56.807 46.0191 57.0078 45 57.0078V57.002ZM45 37.5333C43.4654 37.5337 41.9651 37.079 40.6889 36.2267C39.4127 35.3744 38.4179 34.1627 37.8304 32.745C37.2428 31.3273 37.0889 29.7672 37.3881 28.262C37.6872 26.7568 38.426 25.3742 39.511 24.2889C40.596 23.2036 41.9785 22.4644 43.4836 22.1649C44.9888 21.8654 46.5489 22.0189 47.9668 22.6061C49.3846 23.1933 50.5965 24.1878 51.4491 25.4637C52.3018 26.7397 52.7569 28.2399 52.7569 29.7745C52.7576 30.7937 52.5576 31.8031 52.1681 32.745C51.7787 33.6869 51.2075 34.5429 50.4871 35.2639C49.7668 35.985 48.9114 36.5571 47.9699 36.9475C47.0284 37.3379 46.0192 37.539 45 37.5392V37.5333ZM64.4686 37.5333C62.9341 37.5333 61.434 37.0783 60.1581 36.2257C58.8821 35.3732 57.8877 34.1614 57.3004 32.7437C56.7132 31.3259 56.5595 29.7659 56.8589 28.2608C57.1583 26.7558 57.8972 25.3733 58.9823 24.2882C60.0674 23.2031 61.4499 22.4641 62.955 22.1648C64.46 21.8654 66.0201 22.019 67.4378 22.6063C68.8555 23.1935 70.0673 24.188 70.9199 25.4639C71.7724 26.7399 72.2274 28.24 72.2274 29.7745C72.2282 30.7939 72.0281 31.8035 71.6385 32.7455C71.249 33.6875 70.6776 34.5435 69.957 35.2646C69.2365 35.9857 68.3809 36.5578 67.4392 36.948C66.4974 37.3383 65.488 37.5392 64.4686 37.5392V37.5333Z" fill="#FF6C37"/>
</svg>
